<svg width="12" height="12" viewBox="0 0 12 12" fill="none" xmlns="http://www.w3.org/2000/svg">
<g id="ep:arrow-right">
<path id="Vector" d="M3.99451 1.7499C3.92908 1.81687 3.89246 1.90678 3.89246 2.0004C3.89246 2.09403 3.92908 2.18393 3.99451 2.2509L7.64926 6.00015L3.99451 9.74865C3.92908 9.81562 3.89246 9.90553 3.89246 9.99915C3.89246 10.0928 3.92908 10.1827 3.99451 10.2497C4.0263 10.2823 4.06432 10.3083 4.10631 10.326C4.14831 10.3437 4.19342 10.3528 4.239 10.3528C4.28459 10.3528 4.3297 10.3437 4.3717 10.326C4.41369 10.3083 4.45171 10.2823 4.48351 10.2497L8.37 6.2619C8.43827 6.19187 8.47647 6.09795 8.47647 6.00015C8.47647 5.90236 8.43827 5.80843 8.37 5.7384L4.48351 1.75065C4.45171 1.718 4.41369 1.69204 4.3717 1.67432C4.3297 1.65659 4.28459 1.64746 4.239 1.64746C4.19342 1.64746 4.14831 1.65659 4.10631 1.67432C4.06432 1.69204 4.0263 1.718 3.99451 1.75065V1.7499Z" fill="#3A3A3A"/>
</g>
</svg>
