<svg width="16" height="16" viewBox="0 0 16 16" fill="none" xmlns="http://www.w3.org/2000/svg">
<g id="ic:round-add">
<path id="Vector" d="M12 8.66683H8.66665V12.0002C8.66665 12.3668 8.36665 12.6668 7.99998 12.6668C7.63331 12.6668 7.33331 12.3668 7.33331 12.0002V8.66683H3.99998C3.63331 8.66683 3.33331 8.36683 3.33331 8.00016C3.33331 7.6335 3.63331 7.3335 3.99998 7.3335H7.33331V4.00016C7.33331 3.6335 7.63331 3.3335 7.99998 3.3335C8.36665 3.3335 8.66665 3.6335 8.66665 4.00016V7.3335H12C12.3666 7.3335 12.6666 7.6335 12.6666 8.00016C12.6666 8.36683 12.3666 8.66683 12 8.66683Z" fill="#3A3A3A" fill-opacity="0.5"/>
</g>
</svg>
